<svg width="10" height="14" viewBox="0 0 10 14" fill="none" xmlns="http://www.w3.org/2000/svg">
<path d="M3 1.5C3 2.32843 2.32843 3 1.5 3C0.671573 3 0 2.32843 0 1.5C0 0.671573 0.671573 0 1.5 0C2.32843 0 3 0.671573 3 1.5Z" fill="#C8C9CC"/>
<path d="M10 1.5C10 2.32843 9.32843 3 8.5 3C7.67157 3 7 2.32843 7 1.5C7 0.671573 7.67157 0 8.5 0C9.32843 0 10 0.671573 10 1.5Z" fill="#C8C9CC"/>
<path d="M3 7C3 7.82843 2.32843 8.5 1.5 8.5C0.671573 8.5 0 7.82843 0 7C0 6.17157 0.671573 5.5 1.5 5.5C2.32843 5.5 3 6.17157 3 7Z" fill="#C8C9CC"/>
<path d="M10 7C10 7.82843 9.32843 8.5 8.5 8.5C7.67157 8.5 7 7.82843 7 7C7 6.17157 7.67157 5.5 8.5 5.5C9.32843 5.5 10 6.17157 10 7Z" fill="#C8C9CC"/>
<path d="M3 12.5C3 13.3284 2.32843 14 1.5 14C0.671573 14 0 13.3284 0 12.5C0 11.6716 0.671573 11 1.5 11C2.32843 11 3 11.6716 3 12.5Z" fill="#C8C9CC"/>
<path d="M10 12.5C10 13.3284 9.32843 14 8.5 14C7.67157 14 7 13.3284 7 12.5C7 11.6716 7.67157 11 8.5 11C9.32843 11 10 11.6716 10 12.5Z" fill="#C8C9CC"/>
</svg>
