<svg width="26" height="27" viewBox="0 0 26 27" fill="none" xmlns="http://www.w3.org/2000/svg">
<path d="M22.9063 10.8188H15.8054V3.71834C15.8054 2.26594 14.6759 0.974609 13.0621 0.974609C11.6097 0.974609 10.3188 2.10456 10.3188 3.71834V10.8188H3.21794C1.76555 10.8188 0.474609 11.9487 0.474609 13.5625C0.474609 15.1763 1.60417 16.3054 3.21794 16.3054H10.3188V23.4067C10.3188 24.8591 11.4483 26.1496 13.0621 26.1496C14.5145 26.1496 15.8054 25.0204 15.8054 23.4067V16.3054H22.9063C24.3587 16.3054 25.6496 15.1763 25.6496 13.5625C25.6496 11.9487 24.3587 10.8188 22.9063 10.8188Z" fill="url(#paint0_linear)"/>
<defs>
<linearGradient id="paint0_linear" x1="20.8714" y1="21.3649" x2="7.59542" y2="8.08897" gradientUnits="userSpaceOnUse">
<stop offset="0.0113208" stop-color="#C2D1FF"/>
<stop offset="1" stop-color="white"/>
</linearGradient>
</defs>
</svg>
