<svg width="15" height="15" viewBox="0 0 15 15" fill="none" xmlns="http://www.w3.org/2000/svg">
<path d="M7.86139 14.2545C7.62864 14.2545 7.39502 14.1886 7.18764 14.0701L5.37639 13.0554C5.15984 12.9384 4.97826 12.7641 4.85077 12.5508C4.72328 12.3376 4.65458 12.0934 4.65189 11.8437V6.03413C4.65061 5.992 4.63937 5.9508 4.61911 5.91404C4.59885 5.87728 4.57017 5.84605 4.53552 5.82298L0.431772 2.4108L0.367897 2.34487C-0.0083387 1.96267 -0.0984773 1.37022 0.108898 0.830327C0.316272 0.289545 0.808022 0 1.36541 0H12.6249C13.1814 0 13.6469 0.329636 13.8797 0.830327C14.1133 1.33102 13.9969 1.92347 13.6469 2.34487L13.5822 2.4108L9.35066 5.82298C9.29409 5.87834 9.26137 5.95426 9.25966 6.03413V12.8318C9.25966 13.6621 8.62528 14.2545 7.86228 14.2545H7.86139Z" fill="#128A78"/>
</svg>
