<svg width="225" height="222" viewBox="0 0 225 222" fill="none" xmlns="http://www.w3.org/2000/svg">
<path d="M111.04 212C160.489 212 200.576 171.815 200.576 122.244C200.576 72.674 160.489 32.4893 111.04 32.4893C61.5899 32.4893 21.5029 72.674 21.5029 122.244C21.5029 171.815 61.5899 212 111.04 212Z" fill="#EAEEF9"/>
<path d="M45.1024 64.0947H172.472C177.516 64.0947 181.479 68.0678 181.479 73.1244V153.85C181.479 158.906 177.516 162.88 172.472 162.88H45.1024C40.0581 162.88 36.0947 158.906 36.0947 153.85V73.1244C36.0947 68.0678 40.2383 64.0947 45.1024 64.0947Z" fill="#DAE2EB"/>
<path d="M215.113 99.9116C217.904 97.3548 218.099 93.014 215.549 90.2162C212.998 87.4183 208.668 87.2229 205.877 89.7797C203.086 92.3365 202.891 96.6773 205.441 99.4751C207.992 102.273 212.322 102.468 215.113 99.9116Z" fill="#EAEEF9"/>
<path d="M59.2999 41.471C61.6654 40.7003 62.9598 38.1531 62.1909 35.7818C61.422 33.4105 58.8811 32.113 56.5156 32.8838C54.1501 33.6545 52.8557 36.2016 53.6246 38.5729C54.3934 40.9442 56.9343 42.2417 59.2999 41.471Z" fill="#EAEEF9"/>
<path d="M68.1622 26.8912C69.8537 26.8912 71.2249 25.5166 71.2249 23.8211C71.2249 22.1255 69.8537 20.751 68.1622 20.751C66.4708 20.751 65.0996 22.1255 65.0996 23.8211C65.0996 25.5166 66.4708 26.8912 68.1622 26.8912Z" fill="url(#paint0_linear)"/>
<path d="M213.73 69.8737C215.322 69.8737 216.613 68.5801 216.613 66.9842C216.613 65.3884 215.322 64.0947 213.73 64.0947C212.138 64.0947 210.848 65.3884 210.848 66.9842C210.848 68.5801 212.138 69.8737 213.73 69.8737Z" fill="url(#paint1_linear)"/>
<path d="M143.033 27.0498C143.841 26.3097 143.897 25.0532 143.159 24.2433C142.421 23.4334 141.167 23.3768 140.359 24.1169C139.551 24.857 139.495 26.1136 140.233 26.9235C140.972 27.7334 142.225 27.79 143.033 27.0498Z" fill="#EAEEF9"/>
<path d="M184.038 115.889V155.62C184.038 160.676 179.895 165.011 174.67 165.011H43.698C38.6537 165.011 34.3301 160.857 34.3301 155.62V112.458" stroke="#1676EE" stroke-width="3" stroke-linecap="round" stroke-linejoin="round"/>
<g filter="url(#filter0_d)">
<path d="M172.738 93.6338H131.548C127.539 93.6338 123.669 95.0168 120.628 97.5055L109.847 106.354C106.806 108.843 102.936 110.225 98.9278 110.225H52.0706C47.3711 110.225 43.501 114.097 43.501 118.798C43.501 119.212 43.5011 119.627 43.6393 120.042L52.209 165.668C52.9001 169.954 56.4938 173.134 60.7786 173.134H160.574C164.859 173.134 168.453 170.092 169.144 165.806L181.169 103.45C181.999 98.7496 178.82 94.4634 174.12 93.6338C173.705 93.6338 173.152 93.6338 172.738 93.6338Z" fill="white"/>
</g>
<g filter="url(#filter1_d)">
<path d="M191.421 81.3955H137.735C132.51 81.3955 127.466 83.202 123.503 86.4527L109.451 98.0105C105.487 101.261 100.443 103.067 95.2186 103.067H34.146C28.0208 103.067 22.9766 108.124 22.9766 114.264C22.9766 114.806 22.9767 115.347 23.1569 115.889L34.3264 175.485C35.2271 181.083 39.9111 185.237 45.4959 185.237H175.567C181.152 185.237 185.836 181.264 186.737 175.666L202.411 94.2178C203.491 88.0777 199.348 82.4791 193.222 81.3955C192.682 81.3955 191.961 81.3955 191.421 81.3955Z" fill="white"/>
</g>
<g filter="url(#filter2_d)">
<path d="M200.095 181.103C199.374 184.173 198.294 187.243 197.032 189.952C193.61 196.453 188.385 201.69 181.899 204.941C175.234 208.372 167.307 209.637 159.2 208.011C140.464 204.038 128.394 185.798 132.357 167.016C136.32 148.235 154.516 136.135 173.252 140.108C179.918 141.553 185.863 144.803 190.727 149.499C199.014 157.806 202.437 169.725 200.095 181.103Z" fill="url(#paint2_linear)"/>
</g>
<path d="M103.113 101.297C96.8076 89.0166 95.3663 74.0274 99.5099 60.6634C103.653 47.2995 113.202 35.7415 125.272 29.2401C129.055 27.2535 133.199 25.6282 137.522 25.4476C141.846 25.267 146.35 26.7118 149.232 30.143C152.115 33.3937 152.655 38.631 150.313 42.2428C147.791 45.6741 142.927 46.9383 138.784 46.0353C132.298 44.7711 126.893 39.7145 125.272 33.5743C123.651 27.4341 125.812 20.2104 130.677 16.0567C133.919 13.1672 138.243 11.7225 142.387 10.4583C162.204 4.67931 183.642 3.95694 203.819 8.29119" stroke="#C9D4E2" stroke-miterlimit="10" stroke-dasharray="4 4"/>
<path d="M214.451 3.59464C214.271 6.30355 214.091 8.65127 212.109 9.19305C210.127 9.73483 209.226 7.9289 207.965 5.40058C206.704 3.05286 207.425 0.705142 209.587 0.16336C211.749 -0.378421 214.811 0.343954 214.451 3.59464Z" fill="#DAE2EB"/>
<path d="M212.471 16.2367C213.011 12.986 213.551 11.3607 211.75 10.4577C209.768 9.55473 208.507 11.1801 206.525 13.3472C204.724 15.3337 205.805 18.0426 207.606 18.9456C209.588 20.0292 211.93 18.9456 212.471 16.2367Z" fill="#DAE2EB"/>
<path d="M214.814 10.4576C214.633 11.7218 213.733 12.6247 212.472 12.8053C211.931 12.8053 211.391 12.8053 210.67 12.8053C208.148 12.4441 206.166 10.8188 206.346 9.19345C206.526 7.5681 208.869 6.66513 211.571 7.02632C212.111 7.02632 212.652 7.20691 213.012 7.38751C214.273 7.74869 214.994 9.01285 214.814 10.4576C214.814 10.277 214.814 10.4576 214.814 10.4576Z" fill="#128A78"/>
<path d="M17.7246 60.1207C17.7246 57.0506 17.7246 54.1611 19.8865 53.2581C22.2285 52.3552 23.4896 54.5223 25.1109 57.4118C26.7323 60.1207 26.0117 62.8296 23.6697 63.7326C21.688 64.6356 17.7246 64.0938 17.7246 60.1207Z" fill="#DAE2EB"/>
<path d="M18.9831 45.3114C18.6228 49.1039 18.0824 51.0904 20.4244 51.9934C22.7664 52.8963 24.0275 50.9098 26.1893 48.0203C27.9909 45.492 26.7298 42.4219 24.3878 41.5189C22.0458 40.616 19.3434 42.2413 18.9831 45.3114Z" fill="#DAE2EB"/>
<path d="M17 52.3551C17 50.9103 18.0809 49.8268 19.342 49.6462C19.8825 49.4656 20.6031 49.4656 21.3237 49.6462C24.2062 49.8268 26.5482 51.4521 26.368 53.2581C26.1879 55.064 23.8459 56.3282 20.9634 55.967C20.4229 55.967 19.8825 55.7864 19.342 55.6058C17.9008 55.2446 17 53.7998 17 52.3551Z" fill="#128A78"/>
<path d="M29.0703 52.8965C47.6262 52.8965 81.8555 63.7321 82.396 103.282" stroke="#C9D4E2" stroke-miterlimit="10" stroke-dasharray="4 4"/>
<path d="M195.875 189.759C192.6 195.958 187.601 200.951 181.396 204.05L153.475 176.158L158.645 174.091L168.125 173.575H179.673L195.875 189.759Z" fill="url(#paint3_linear)"/>
<path d="M175.906 172.819H168.805V165.718C168.805 164.266 167.676 162.975 166.062 162.975C164.61 162.975 163.319 164.105 163.319 165.718V172.819H156.218C154.766 172.819 153.475 173.949 153.475 175.563C153.475 177.176 154.604 178.305 156.218 178.305H163.319V185.407C163.319 186.859 164.448 188.15 166.062 188.15C167.515 188.15 168.805 187.02 168.805 185.407V178.305H175.906C177.359 178.305 178.65 177.176 178.65 175.563C178.65 173.949 177.359 172.819 175.906 172.819Z" fill="url(#paint4_linear)"/>
<defs>
<filter id="filter0_d" x="33.501" y="74.6338" width="157.8" height="99.5" filterUnits="userSpaceOnUse" color-interpolation-filters="sRGB">
<feFlood flood-opacity="0" result="BackgroundImageFix"/>
<feColorMatrix in="SourceAlpha" type="matrix" values="0 0 0 0 0 0 0 0 0 0 0 0 0 0 0 0 0 0 127 0"/>
<feOffset dy="-9"/>
<feGaussianBlur stdDeviation="5"/>
<feColorMatrix type="matrix" values="0 0 0 0 0.397708 0 0 0 0 0.47749 0 0 0 0 0.575 0 0 0 0.13 0"/>
<feBlend mode="normal" in2="BackgroundImageFix" result="effect1_dropShadow"/>
<feBlend mode="normal" in="SourceGraphic" in2="effect1_dropShadow" result="shape"/>
</filter>
<filter id="filter1_d" x="0.976562" y="70.3955" width="223.605" height="147.841" filterUnits="userSpaceOnUse" color-interpolation-filters="sRGB">
<feFlood flood-opacity="0" result="BackgroundImageFix"/>
<feColorMatrix in="SourceAlpha" type="matrix" values="0 0 0 0 0 0 0 0 0 0 0 0 0 0 0 0 0 0 127 0"/>
<feOffset dy="11"/>
<feGaussianBlur stdDeviation="11"/>
<feColorMatrix type="matrix" values="0 0 0 0 0.397708 0 0 0 0 0.47749 0 0 0 0 0.575 0 0 0 0.18 0"/>
<feBlend mode="normal" in2="BackgroundImageFix" result="effect1_dropShadow"/>
<feBlend mode="normal" in="SourceGraphic" in2="effect1_dropShadow" result="shape"/>
</filter>
<filter id="filter2_d" x="123.604" y="136.353" width="85.2129" height="85.3613" filterUnits="userSpaceOnUse" color-interpolation-filters="sRGB">
<feFlood flood-opacity="0" result="BackgroundImageFix"/>
<feColorMatrix in="SourceAlpha" type="matrix" values="0 0 0 0 0 0 0 0 0 0 0 0 0 0 0 0 0 0 127 0"/>
<feOffset dy="5"/>
<feGaussianBlur stdDeviation="4"/>
<feColorMatrix type="matrix" values="0 0 0 0 0.1125 0 0 0 0 0.295916 0 0 0 0 1 0 0 0 0.22 0"/>
<feBlend mode="normal" in2="BackgroundImageFix" result="effect1_dropShadow"/>
<feBlend mode="normal" in="SourceGraphic" in2="effect1_dropShadow" result="shape"/>
</filter>
<linearGradient id="paint0_linear" x1="87.8433" y1="23.4434" x2="68.4479" y2="23.4434" gradientUnits="userSpaceOnUse">
<stop stop-color="#FFC800" stop-opacity="0"/>
<stop offset="1" stop-color="#FFC800"/>
</linearGradient>
<linearGradient id="paint1_linear" x1="232.254" y1="66.6288" x2="213.999" y2="66.6288" gradientUnits="userSpaceOnUse">
<stop stop-color="#FFC800" stop-opacity="0"/>
<stop offset="1" stop-color="#FFC800"/>
</linearGradient>
<linearGradient id="paint2_linear" x1="378.264" y1="173.925" x2="132.763" y2="173.925" gradientUnits="userSpaceOnUse">
<stop stop-color="#3EE3CD"/>
<stop offset="1" stop-color="#128A78"/>
</linearGradient>
<linearGradient id="paint3_linear" x1="304.579" y1="188.765" x2="154.185" y2="188.765" gradientUnits="userSpaceOnUse">
<stop stop-color="#3EE3CD"/>
<stop offset="1" stop-color="#128A78"/>
</linearGradient>
<linearGradient id="paint4_linear" x1="173.871" y1="183.365" x2="160.595" y2="170.089" gradientUnits="userSpaceOnUse">
<stop offset="0.0113208" stop-color="#C2D1FF"/>
<stop offset="1" stop-color="white"/>
</linearGradient>
</defs>
</svg>
