<svg width="225" height="219" viewBox="0 0 225 219" fill="none" xmlns="http://www.w3.org/2000/svg">
<path d="M111.04 212C160.489 212 200.576 171.815 200.576 122.244C200.576 72.674 160.489 32.4893 111.04 32.4893C61.5899 32.4893 21.5029 72.674 21.5029 122.244C21.5029 171.815 61.5899 212 111.04 212Z" fill="#EAEEF9"/>
<path d="M45.1034 64.0938H172.473C177.517 64.0938 181.48 68.0668 181.48 73.1234V153.849C181.48 158.906 177.517 162.879 172.473 162.879H45.1034C40.0591 162.879 36.0957 158.906 36.0957 153.849V73.1234C36.0957 68.0668 40.2393 64.0938 45.1034 64.0938Z" fill="#DAE2EB"/>
<path d="M215.112 99.9106C217.903 97.3538 218.098 93.013 215.548 90.2152C212.997 87.4173 208.667 87.2219 205.876 89.7787C203.085 92.3355 202.89 96.6763 205.44 99.4741C207.991 102.272 212.321 102.467 215.112 99.9106Z" fill="#EAEEF9"/>
<path d="M59.3018 41.472C61.6674 40.7012 62.9617 38.1541 62.1929 35.7828C61.424 33.4115 58.8831 32.114 56.5175 32.8847C54.152 33.6555 52.8577 36.2026 53.6265 38.5739C54.3954 40.9452 56.9363 42.2427 59.3018 41.472Z" fill="#EAEEF9"/>
<path d="M68.1642 26.8912C69.8556 26.8912 71.2268 25.5166 71.2268 23.8211C71.2268 22.1255 69.8556 20.751 68.1642 20.751C66.4727 20.751 65.1016 22.1255 65.1016 23.8211C65.1016 25.5166 66.4727 26.8912 68.1642 26.8912Z" fill="url(#paint0_linear)"/>
<path d="M213.728 69.8728C215.32 69.8728 216.611 68.5791 216.611 66.9832C216.611 65.3874 215.32 64.0938 213.728 64.0938C212.136 64.0938 210.846 65.3874 210.846 66.9832C210.846 68.5791 212.136 69.8728 213.728 69.8728Z" fill="url(#paint1_linear)"/>
<path d="M143.033 27.0498C143.841 26.3097 143.897 25.0532 143.159 24.2433C142.421 23.4334 141.167 23.3768 140.359 24.1169C139.551 24.857 139.495 26.1136 140.233 26.9235C140.972 27.7334 142.225 27.79 143.033 27.0498Z" fill="#EAEEF9"/>
<path d="M184.038 115.889V155.62C184.038 160.676 179.895 165.011 174.67 165.011H43.698C38.6537 165.011 34.3301 160.857 34.3301 155.62V112.458" stroke="#1676EE" stroke-width="3" stroke-linecap="round" stroke-linejoin="round"/>
<g filter="url(#filter0_d)">
<path d="M172.739 93.6328H131.549C127.54 93.6328 123.67 95.0158 120.629 97.5045L109.848 106.353C106.807 108.842 102.937 110.224 98.9288 110.224H52.0716C47.3721 110.224 43.502 114.096 43.502 118.797C43.502 119.211 43.5021 119.626 43.6403 120.041L52.21 165.667C52.9011 169.953 56.4947 173.133 60.7796 173.133H160.575C164.86 173.133 168.454 170.091 169.145 165.805L181.17 103.449C182 98.7486 178.82 94.4624 174.121 93.6328C173.706 93.6328 173.153 93.6328 172.739 93.6328Z" fill="white"/>
</g>
<g filter="url(#filter1_d)">
<path d="M191.42 81.3955H137.734C132.509 81.3955 127.465 83.202 123.502 86.4527L109.45 98.0105C105.486 101.261 100.442 103.067 95.2177 103.067H34.1451C28.0198 103.067 22.9756 108.124 22.9756 114.264C22.9756 114.806 22.9758 115.347 23.1559 115.889L34.3254 175.485C35.2262 181.083 39.9101 185.237 45.4949 185.237H175.566C181.151 185.237 185.835 181.264 186.736 175.666L202.41 94.2178C203.49 88.0777 199.347 82.4791 193.221 81.3955C192.681 81.3955 191.96 81.3955 191.42 81.3955Z" fill="white"/>
</g>
<path d="M103.112 101.296C96.8066 89.0157 95.3654 74.0264 99.5089 60.6624C103.652 47.2985 113.201 35.7405 125.271 29.2391C129.054 27.2526 133.198 25.6272 137.521 25.4466C141.845 25.266 146.349 26.7108 149.232 30.1421C152.114 33.3928 152.654 38.63 150.312 42.2419C147.79 45.6731 142.926 46.9373 138.783 46.0343C132.297 44.7702 126.892 39.7135 125.271 33.5734C123.65 27.4332 125.811 20.2094 130.676 16.0557C133.918 13.1662 138.242 11.7215 142.386 10.4573C162.203 4.67833 183.641 3.95596 203.818 8.29021" stroke="#C9D4E2" stroke-miterlimit="10" stroke-dasharray="4 4"/>
<path d="M214.453 3.59464C214.273 6.30355 214.092 8.65127 212.111 9.19305C210.129 9.73483 209.228 7.9289 207.967 5.40058C206.706 3.05286 207.427 0.705142 209.589 0.16336C211.75 -0.378421 214.813 0.343954 214.453 3.59464Z" fill="#DAE2EB"/>
<path d="M212.471 16.2367C213.011 12.986 213.551 11.3607 211.75 10.4577C209.768 9.55473 208.507 11.1801 206.525 13.3472C204.724 15.3337 205.805 18.0426 207.606 18.9456C209.588 20.0292 211.93 18.9456 212.471 16.2367Z" fill="#DAE2EB"/>
<path d="M214.814 10.4576C214.633 11.7218 213.733 12.6247 212.472 12.8053C211.931 12.8053 211.391 12.8053 210.67 12.8053C208.148 12.4441 206.166 10.8188 206.346 9.19345C206.526 7.5681 208.869 6.66513 211.571 7.02632C212.111 7.02632 212.652 7.20691 213.012 7.38751C214.273 7.74869 214.994 9.01285 214.814 10.4576C214.814 10.277 214.814 10.4576 214.814 10.4576Z" fill="#128A78"/>
<path d="M17.7256 60.1197C17.7256 57.0496 17.7256 54.1601 19.8874 53.2572C22.2294 52.3542 23.4905 54.5213 25.1119 57.4108C26.7333 60.1197 26.0127 62.8286 23.6707 63.7316C21.689 64.6346 17.7256 64.0928 17.7256 60.1197Z" fill="#DAE2EB"/>
<path d="M18.9822 45.3114C18.6219 49.1039 18.0814 51.0904 20.4234 51.9934C22.7654 52.8963 24.0265 50.9098 26.1883 48.0203C27.9899 45.492 26.7288 42.4219 24.3868 41.5189C22.0448 40.616 19.3425 42.2413 18.9822 45.3114Z" fill="#DAE2EB"/>
<path d="M17 52.3541C17 50.9094 18.0809 49.8258 19.342 49.6452C19.8825 49.4646 20.6031 49.4646 21.3237 49.6452C24.2062 49.8258 26.5482 51.4511 26.368 53.2571C26.1879 55.063 23.8459 56.3272 20.9634 55.966C20.4229 55.966 19.8825 55.7854 19.342 55.6048C17.9008 55.2436 17 53.7989 17 52.3541Z" fill="#128A78"/>
<path d="M29.0693 52.8965C47.6252 52.8965 81.8546 63.7321 82.395 103.282" stroke="#C9D4E2" stroke-miterlimit="10" stroke-dasharray="4 4"/>
<defs>
<filter id="filter0_d" x="33.502" y="74.6328" width="157.8" height="99.5" filterUnits="userSpaceOnUse" color-interpolation-filters="sRGB">
<feFlood flood-opacity="0" result="BackgroundImageFix"/>
<feColorMatrix in="SourceAlpha" type="matrix" values="0 0 0 0 0 0 0 0 0 0 0 0 0 0 0 0 0 0 127 0"/>
<feOffset dy="-9"/>
<feGaussianBlur stdDeviation="5"/>
<feColorMatrix type="matrix" values="0 0 0 0 0.397708 0 0 0 0 0.47749 0 0 0 0 0.575 0 0 0 0.13 0"/>
<feBlend mode="normal" in2="BackgroundImageFix" result="effect1_dropShadow"/>
<feBlend mode="normal" in="SourceGraphic" in2="effect1_dropShadow" result="shape"/>
</filter>
<filter id="filter1_d" x="0.975586" y="70.3955" width="223.605" height="147.841" filterUnits="userSpaceOnUse" color-interpolation-filters="sRGB">
<feFlood flood-opacity="0" result="BackgroundImageFix"/>
<feColorMatrix in="SourceAlpha" type="matrix" values="0 0 0 0 0 0 0 0 0 0 0 0 0 0 0 0 0 0 127 0"/>
<feOffset dy="11"/>
<feGaussianBlur stdDeviation="11"/>
<feColorMatrix type="matrix" values="0 0 0 0 0.397708 0 0 0 0 0.47749 0 0 0 0 0.575 0 0 0 0.18 0"/>
<feBlend mode="normal" in2="BackgroundImageFix" result="effect1_dropShadow"/>
<feBlend mode="normal" in="SourceGraphic" in2="effect1_dropShadow" result="shape"/>
</filter>
<linearGradient id="paint0_linear" x1="87.8453" y1="23.4434" x2="68.4498" y2="23.4434" gradientUnits="userSpaceOnUse">
<stop stop-color="#FFC800" stop-opacity="0"/>
<stop offset="1" stop-color="#FFC800"/>
</linearGradient>
<linearGradient id="paint1_linear" x1="232.252" y1="66.6278" x2="213.997" y2="66.6278" gradientUnits="userSpaceOnUse">
<stop stop-color="#FFC800" stop-opacity="0"/>
<stop offset="1" stop-color="#FFC800"/>
</linearGradient>
</defs>
</svg>
